<svg width="22" height="22" viewBox="0 0 22 22" fill="currentColor" xmlns="http://www.w3.org/2000/svg">
<path d="M6.18826 14.6488L9.52621 14.4526C9.52872 14.4526 9.53087 14.4541 9.53337 14.4541C9.53803 14.4541 9.54161 14.4516 9.54626 14.4516L16.9125 14.0183C18.0115 13.9535 19.1448 13.0844 19.4928 12.0407L21.9624 4.63223C22.0369 4.40843 21.9993 4.1628 21.8615 3.97159C21.724 3.78002 21.5023 3.66687 21.2667 3.66687H4.50353C4.18914 2.83436 3.57039 1.94492 2.93338 1.4669L1.17345 0.147057C0.848679 -0.0967884 0.389629 -0.0301875 0.146856 0.293507C-0.0962752 0.617559 -0.0307478 1.07732 0.293308 1.32009L2.05324 2.63993C2.54988 3.01268 3.11349 3.90678 3.23523 4.5155L5.07071 13.6924L4.40004 14.3631C3.97501 14.7878 3.66671 15.5326 3.66671 16.1334V16.8667C3.66671 17.2717 3.99506 17.6 4.40004 17.6H5.86671H17.6H19.0667C19.4717 17.6 19.8 17.2717 19.8 16.8667C19.8 16.4618 19.4717 16.1334 19.0667 16.1334H5.13338C5.13338 15.9246 5.2895 15.5476 5.43702 15.4001L6.18826 14.6488ZM18.7824 9.53347H15.4V8.06682H19.2715L18.7824 9.53347ZM13.9334 9.53347H10.2667V8.06682H13.9334V9.53347ZM13.9334 11.0001V12.7246L10.2667 12.9401V11.0001H13.9334ZM5.44132 8.06682H8.80004V9.53347H5.73458L5.44132 8.06682ZM10.2667 6.60017V5.13352H13.9334V6.60017H10.2667ZM8.80004 6.60017H5.1477L4.85444 5.13352H8.80004V6.60017ZM8.80004 11.0001V13.0264L6.46075 13.1639L6.02784 11.0001H8.80004ZM16.8262 12.5545L15.4 12.6383V11.0001H18.2936L18.1013 11.577C17.9409 12.0586 17.3329 12.5244 16.8262 12.5545ZM19.7606 6.60017H15.4V5.13352H20.2494L19.7606 6.60017ZM15.4 19.8C15.4 21.0132 16.3869 22 17.6 22C18.8132 22 19.8 21.0132 19.8 19.8C19.8 18.5869 18.8132 17.6 17.6 17.6C16.3869 17.6 15.4 18.5869 15.4 19.8ZM17.6 19.0667C18.0043 19.0667 18.3334 19.3958 18.3334 19.8C18.3334 20.2043 18.0043 20.5333 17.6 20.5333C17.1958 20.5333 16.8667 20.2043 16.8667 19.8C16.8667 19.3958 17.1958 19.0667 17.6 19.0667ZM3.66671 19.8C3.66671 21.0132 4.65356 22 5.86671 22C7.07986 22 8.06671 21.0132 8.06671 19.8C8.06671 18.5869 7.07986 17.6 5.86671 17.6C4.65356 17.6 3.66671 18.5869 3.66671 19.8ZM5.86671 19.0667C6.27097 19.0667 6.60004 19.3958 6.60004 19.8C6.60004 20.2043 6.27097 20.5333 5.86671 20.5333C5.46244 20.5333 5.13338 20.2043 5.13338 19.8C5.13338 19.3958 5.46244 19.0667 5.86671 19.0667Z" fill="white"/>
</svg>
