<svg width="16" height="16" viewBox="0 0 16 16" fill="none" xmlns="http://www.w3.org/2000/svg">
<path fill-rule="evenodd" clip-rule="evenodd" d="M8.2499 0.900484C8.09523 0.811818 7.90456 0.811818 7.7499 0.900484L1.97656 4.23382C1.8219 4.32315 1.72656 4.48848 1.72656 4.66715V11.3338C1.72656 11.5125 1.8219 11.6778 1.97656 11.7672L7.7499 15.1005C7.90456 15.1892 8.09523 15.1892 8.2499 15.1005L14.0232 11.7672C14.1779 11.6778 14.2732 11.5125 14.2732 11.3338V4.66715C14.2732 4.48848 14.1779 4.32315 14.0232 4.23382L8.2499 0.900484Z" fill="#1F1F21"/>
<g clip-path="url(#clip0_1110_388)">
<path d="M11.3812 4.87816C9.98354 5.33693 8.2018 6.56388 6.55876 8.66569L5.58787 7.58811C5.4385 7.4174 5.16111 7.4174 5.01174 7.58811L4.29691 8.38829C4.15821 8.54833 4.16888 8.78305 4.31825 8.92175L6.51608 11.0342C6.69746 11.2049 6.99619 11.1623 7.12422 10.9382C8.29782 8.81506 9.55678 7.23603 11.6906 5.42228C11.9467 5.19823 11.7119 4.77147 11.3812 4.87816Z" fill="white"/>
</g>
<defs>
<clipPath id="clip0_1110_388">
<rect width="8" height="8" fill="white" transform="translate(4 4)"/>
</clipPath>
</defs>
</svg>
