<svg width="30" height="30" viewBox="0 0 30 30" fill="none" xmlns="http://www.w3.org/2000/svg">
<g clip-path="url(#clip0_3118_15)">
<path d="M25.6117 4.38855C19.7604 -1.46285 10.2397 -1.46285 4.38845 4.38855C-1.46282 10.2396 -1.46282 19.7602 4.38845 25.6116C7.31409 28.5372 11.157 30 15 30C18.8429 30 22.6861 28.5372 25.6117 25.6114C31.4628 19.7602 31.4628 10.2396 25.6117 4.38855ZM24.2852 24.2852C19.1654 29.405 10.8348 29.405 5.71489 24.2852C0.595032 19.1652 0.595032 10.8346 5.71489 5.71479C10.8348 0.59498 19.1654 0.59498 24.2852 5.71479C29.4049 10.8346 29.4049 19.1652 24.2852 24.2852Z" fill="#87878D"/>
<path d="M20.8254 9.17523C20.4591 8.80887 19.8654 8.80887 19.499 9.17523L15.0014 13.673L10.5037 9.17523C10.1374 8.80887 9.54348 8.80868 9.1773 9.17523C8.81094 9.5414 8.81094 10.1353 9.1773 10.5015L13.6749 14.9992L9.17711 19.497C8.81075 19.8632 8.81075 20.4571 9.17711 20.8233C9.36039 21.0065 9.60031 21.0981 9.84043 21.0981C10.0805 21.0981 10.3205 21.0065 10.5037 20.8233L15.0014 16.3257L19.499 20.8233C19.6823 21.0065 19.9222 21.0981 20.1621 21.0981C20.4022 21.0981 20.6424 21.0065 20.8254 20.8233C21.1918 20.4571 21.1918 19.8632 20.8254 19.497L16.3278 14.9992L20.8256 10.5015C21.1918 10.1355 21.1918 9.54159 20.8254 9.17523Z" fill="#87878D"/>
</g>
<defs>
<clipPath id="clip0_3118_15">
<rect width="30" height="30" fill="white"/>
</clipPath>
</defs>
</svg>
