
<svg width="20" height="20" viewBox="0 0 20 20" fill="currentColor" xmlns="http://www.w3.org/2000/svg">
<path d="M19.8229 9.63087L18.8437 6.67962C18.5896 5.91254 17.8854 5.41671 17.0504 5.41671H14.4287L14.5246 4.63546C14.5671 4.29796 14.4671 3.96379 14.2508 3.71837C14.035 3.47379 13.7179 3.33337 13.38 3.33337H3.28123C2.61456 3.33337 2.00956 3.87212 1.93248 4.53046L1.87915 4.94712C1.8504 5.17546 2.01123 5.38421 2.23956 5.41337C2.47081 5.44671 2.67706 5.28129 2.70581 5.05296L2.75956 4.63171C2.78831 4.38379 3.03206 4.16671 3.28123 4.16671H13.38C13.48 4.16671 13.5671 4.20337 13.6258 4.26962C13.6854 4.33712 13.7108 4.42962 13.6979 4.53296L12.7221 12.5005H1.78373C1.78373 12.2938 1.63581 12.113 1.4254 12.0871C1.19665 12.058 0.988729 12.2209 0.960812 12.4492L0.805395 13.7021C0.765395 14.0409 0.867479 14.3755 1.0854 14.62C1.30331 14.8655 1.61081 15.0005 1.9504 15.0005H2.75706C2.76331 15.4142 2.89998 15.8 3.16915 16.1034C3.4904 16.4667 3.9479 16.6671 4.45623 16.6671C5.40956 16.6671 6.27623 15.9317 6.47123 15.0005H13.6908C13.6971 15.4142 13.8337 15.7996 14.1021 16.103C14.4237 16.4667 14.8812 16.6671 15.39 16.6671C16.3429 16.6671 17.2096 15.9317 17.405 15.0005H18.3021C18.9762 15.0005 19.5687 14.4734 19.6508 13.8013L19.9708 11.1917C20.0371 10.6513 19.9875 10.1263 19.8233 9.63129L19.8229 9.63087ZM18.9291 9.58337H16.4183L16.6162 7.96754C16.6191 7.94629 16.6533 7.91671 16.6704 7.91671H18.3762L18.9291 9.58337ZM14.3271 6.25004H17.0508C17.5279 6.25004 17.9112 6.51504 18.0529 6.94212L18.1 7.08337H16.6704C16.23 7.08337 15.8433 7.42712 15.7896 7.86587L15.5854 9.53254C15.5575 9.76087 15.6262 9.98754 15.7741 10.1546C15.9216 10.3209 16.1362 10.4163 16.3641 10.4163H19.145C19.1704 10.6355 19.1721 10.86 19.1437 11.0896L18.9708 12.4996H13.5612L14.3266 6.24962L14.3271 6.25004ZM13.8687 14.1667H13.3571L13.4591 13.3334H14.5483C14.2566 13.5496 14.0204 13.8359 13.8687 14.1667ZM12.5179 14.1667H6.45998C6.39415 13.9138 6.27665 13.6792 6.10123 13.4809C6.05206 13.4255 5.99456 13.3813 5.93956 13.3334H12.6204L12.5179 14.1667ZM2.93123 14.1667H1.94998C1.84998 14.1667 1.76623 14.1317 1.70748 14.0659C1.64665 13.998 1.6204 13.903 1.63206 13.8013L1.68998 13.3334H3.6004C3.31123 13.5484 3.07915 13.8338 2.93081 14.1667H2.93123ZM5.67956 14.7409C5.60706 15.3334 5.04665 15.8334 4.45581 15.8334C4.18915 15.8334 3.95415 15.733 3.79248 15.5505C3.62831 15.3655 3.55665 15.1138 3.58956 14.8425C3.66248 14.25 4.2229 13.75 4.81373 13.75C5.0804 13.75 5.31581 13.8505 5.47706 14.033C5.64123 14.218 5.7129 14.4696 5.67956 14.7409ZM16.6133 14.7409C16.5404 15.3334 15.98 15.8334 15.3896 15.8334C15.1229 15.8334 14.8875 15.733 14.7258 15.5505C14.5616 15.3655 14.49 15.1138 14.5233 14.8425C14.5962 14.25 15.1566 13.75 15.7471 13.75C16.0137 13.75 16.2491 13.8505 16.4108 14.033C16.575 14.218 16.6466 14.4696 16.6133 14.7409ZM18.3021 14.1667H17.3937C17.3279 13.9138 17.2104 13.6792 17.035 13.4809C16.9858 13.4255 16.9283 13.3813 16.8733 13.3334H18.8691L18.8241 13.6992C18.7937 13.9484 18.5496 14.1667 18.3021 14.1667Z" fill="#1F1F21"/>
<path d="M3.7625 10.8333C3.7625 10.6029 3.57625 10.4166 3.34583 10.4166H0.416667C0.18625 10.4166 0 10.6029 0 10.8333C0 11.0637 0.18625 11.25 0.416667 11.25H3.34583C3.57625 11.25 3.7625 11.0637 3.7625 10.8333Z" fill="#1F1F21"/>
<path d="M1.70182 8.33337C1.47141 8.33337 1.28516 8.52004 1.28516 8.75004C1.28516 8.98004 1.47141 9.16671 1.70182 9.16671H3.60224C3.83266 9.16671 4.01891 8.98004 4.01891 8.75004C4.01891 8.52004 3.83266 8.33337 3.60224 8.33337H1.70182Z" fill="#1F1F21"/>
<path d="M0.904948 7.08333H4.27161C4.50203 7.08333 4.68828 6.89667 4.68828 6.66667C4.68828 6.43667 4.50203 6.25 4.27161 6.25H0.904948C0.674531 6.25 0.488281 6.43667 0.488281 6.66667C0.488281 6.89667 0.674531 7.08333 0.904948 7.08333Z" fill="#1F1F21"/>
</svg>