<svg width="1216" height="177" viewBox="0 0 1216 177" fill="none" xmlns="http://www.w3.org/2000/svg">
<g clip-path="url(#clip0_4143_86)">
<path d="M32.9674 4.83105H0V172.17H135.105V139.208H32.9674V4.83105Z" fill="#BCBDBE"/>
<path d="M253.358 4.83105L176.016 172.17H212.726L234.146 125.623H314.509L335.929 172.17H372.856L295.5 4.83105H253.358ZM249.513 92.6613L274.41 38.9429L299.168 92.6613H249.513Z" fill="#BCBDBE"/>
<path d="M504.36 93.7708C504.36 101.835 503.84 109.25 502.799 115.799C501.873 121.645 499.957 126.665 497.089 130.738C494.335 134.648 490.173 137.76 484.691 139.979C478.803 142.374 470.593 143.592 460.302 143.592C450.011 143.592 441.94 142.347 436.217 139.912C430.85 137.625 426.726 134.445 423.959 130.44C421.079 126.286 419.15 121.171 418.224 115.258C417.183 108.655 416.663 101.267 416.663 93.3243V4.83105H383.695V103.648C384.444 128.221 391.461 146.758 404.557 158.774C417.437 170.573 436.255 176.567 460.518 176.567C484.78 176.567 503.548 170.668 516.352 159.018C529.384 147.164 536.439 128.559 537.328 103.703V4.83105H504.36V93.7708Z" fill="#BCBDBE"/>
<path d="M721.084 95.2863C727.036 87.0053 730.284 75.8692 730.741 61.9457C730.741 52.7581 729.371 44.5042 726.668 37.4139C723.901 30.1883 719.968 24.0722 714.943 19.2281C709.956 14.4246 703.877 10.7577 696.86 8.34913C690.071 6.02179 682.483 4.83105 674.311 4.83105H571.754V172.17H604.721V115.962H669.349L699.208 171.953H737.695L703.979 109.792C710.895 106.341 716.63 101.484 721.084 95.2728V95.2863ZM604.721 37.7928H669.781C679.234 37.7928 686.188 39.8359 690.452 43.8682C694.55 47.7516 696.543 53.2182 696.543 60.6197C696.543 68.0212 694.462 73.3795 690.198 77.0329C685.554 80.9975 677.927 83.0001 667.522 83.0001H604.734V37.7928H604.721Z" fill="#BCBDBE"/>
<path d="M934.76 48.7254C930.192 37.7923 923.796 28.5912 915.738 21.3656C907.757 14.2076 898.214 8.78167 887.339 5.23653C876.68 1.75904 864.726 0 851.796 0C838.865 0 826.975 1.67785 816.328 4.99297C805.428 8.38927 795.86 13.707 787.879 20.7837C779.808 27.9417 773.387 37.1699 768.819 48.1842C764.314 59.0361 761.814 72.0124 761.383 86.7342V86.8424V91.1183C761.827 105.569 764.327 118.329 768.832 129.032C773.4 139.898 779.808 149.045 787.879 156.189C795.86 163.279 805.428 168.584 816.328 171.98C826.962 175.295 838.89 176.973 851.796 176.973C864.701 176.973 876.629 175.295 887.263 171.98C898.138 168.584 907.706 163.32 915.675 156.325C923.758 149.234 930.179 140.087 934.747 129.127C939.252 118.329 941.765 105.542 942.196 90.8882V86.7207C941.752 72.283 939.252 59.4961 934.747 48.6983L934.76 48.7254ZM851.808 144.038C843.053 144.038 835.02 142.78 827.952 140.317C821.074 137.922 815.199 134.404 810.466 129.871C805.796 125.392 802.116 119.736 799.553 113.039C796.926 106.219 795.606 98.1138 795.606 88.9398C795.606 79.3192 796.939 70.9028 799.578 63.9208C802.154 57.1011 805.822 51.3775 810.479 46.9122C815.199 42.3929 821.062 38.9154 827.914 36.588C835.007 34.1795 843.04 32.9617 851.808 32.9617C860.577 32.9617 868.546 34.2472 875.614 36.7775C882.479 39.2401 888.354 42.8529 893.075 47.5076C897.77 52.1488 901.463 57.9265 904.051 64.7191C906.678 71.62 908.01 79.7792 908.01 88.9398C908.01 98.1003 906.678 106.422 904.064 113.255C901.488 119.953 897.821 125.623 893.151 130.088C888.43 134.607 882.568 138.085 875.715 140.412C868.622 142.82 860.577 144.038 851.821 144.038H851.808Z" fill="#BCBDBE"/>
<path d="M1100.55 4.83047V129.817L1016.75 4.83047H992.193L992.028 4.58691V4.83047H971.852V172.169H1004.82V47.2639L1088.2 172.169H1113.23L1113.34 172.345L1133.31 172.169V4.83047H1100.55Z" fill="#BCBDBE"/>
<path d="M161.54 4.80371L132.48 64.6246H170.536L200.078 4.80371H161.54Z" fill="#BCBDBE"/>
<path d="M1163.95 38.3198V11.0953H1154.85V4.95215H1180.65V11.0817H1171.55V38.3062H1163.95V38.3198ZM1184.45 38.3198V4.95215H1193.21L1200.24 19.4575H1200.69L1207.84 4.95215H1216.01V38.3198H1209.34V24.8834L1209.79 14.6269H1209.34L1200.24 32.4202L1191.14 14.6269H1190.68L1191.14 24.8834V38.3198H1184.46H1184.45Z" fill="#BCBDBE"/>
</g>
<defs>
<clipPath id="clip0_4143_86">
<rect width="1216" height="177" fill="white"/>
</clipPath>
</defs>
</svg>
