<svg width="48" height="24" viewBox="0 0 48 24" fill="none" xmlns="http://www.w3.org/2000/svg">
<rect x="0.5" y="0.5" width="47" height="23" rx="11.5" stroke="white"/>
<path d="M24 0H36C42.6274 0 48 5.37258 48 12C48 18.6274 42.6274 24 36 24H24V0Z" fill="white"/>
<g clip-path="url(#clip0_4143_71)">
<path d="M37.65 12.0003L40.7436 8.90668C41.0854 8.56487 41.0854 8.0107 40.7436 7.66942L40.3312 7.257C39.9893 6.91508 39.4351 6.91508 39.0938 7.257L36.0003 10.3505L32.9067 7.25636C32.5649 6.91455 32.0107 6.91455 31.6694 7.25636L31.2564 7.66878C30.9145 8.0107 30.9145 8.56487 31.2564 8.90615L34.3505 12.0003L31.257 15.0938C30.9151 15.4358 30.9151 15.9899 31.257 16.3312L31.6694 16.7436C32.0112 17.0854 32.5654 17.0854 32.9067 16.7436L36.0003 13.65L39.0938 16.7436C39.4358 17.0854 39.9899 17.0854 40.3312 16.7436L40.7436 16.3312C41.0854 15.9893 41.0854 15.4351 40.7436 15.0938L37.65 12.0003Z" fill="#1F1F21"/>
</g>
<path d="M17.92 6.53629C15.4741 7.33914 12.3561 9.48629 9.48076 13.1645L7.7817 11.2787C7.52031 10.98 7.03486 10.98 6.77347 11.2787L5.52252 12.679C5.2798 12.9591 5.29847 13.3699 5.55986 13.6126L9.40607 17.3094C9.72348 17.6082 10.2463 17.5335 10.4703 17.1414C12.5241 13.4259 14.7273 10.6626 18.4615 7.4885C18.9096 7.09641 18.4988 6.34958 17.92 6.53629Z" fill="white"/>
<defs>
<clipPath id="clip0_4143_71">
<rect width="10" height="10" fill="white" transform="translate(31 7)"/>
</clipPath>
</defs>
</svg>
