<svg width="20" height="20" viewBox="0 0 20 20" fill="currentColor" class="lauron-cart" xmlns="http://www.w3.org/2000/svg">
<g clip-path="url(#clip0_1171_455)">
<path d="M14.1009 13.1097L11.2561 12.9425C11.2539 12.9425 11.2521 12.9437 11.25 12.9437C11.246 12.9437 11.2429 12.9416 11.239 12.9416L4.9609 12.5723C4.02431 12.5171 3.05843 11.7764 2.7618 10.8868L0.657001 4.57272C0.593525 4.38199 0.625568 4.17264 0.743061 4.00967C0.860249 3.8464 1.04915 3.74997 1.24996 3.74997H15.5368C15.8047 3.04043 16.3321 2.28238 16.875 1.87497L18.3749 0.75009C18.6517 0.542265 19.0429 0.599028 19.2498 0.874906C19.4571 1.15109 19.4012 1.54294 19.125 1.74985L17.6251 2.87472C17.2018 3.19241 16.7215 3.95444 16.6177 4.47323L15.0534 12.2946L15.625 12.8662C15.9872 13.2281 16.25 13.8629 16.25 14.375V15C16.25 15.3451 15.9701 15.625 15.625 15.625H14.375H4.37496H3.12496C2.77981 15.625 2.49996 15.3451 2.49996 15C2.49996 14.6548 2.77981 14.375 3.12496 14.375H15C15 14.197 14.8669 13.8757 14.7412 13.75L14.1009 13.1097ZM3.36727 8.74997H6.24996V7.49997H2.9504L3.36727 8.74997ZM7.49996 8.74997H10.625V7.49997H7.49996V8.74997ZM7.49996 9.99997V11.4697L10.625 11.6534V9.99997H7.49996ZM14.7375 7.49997H11.875V8.74997H14.4876L14.7375 7.49997ZM10.625 6.24997V4.99997H7.49996V6.24997H10.625ZM11.875 6.24997H14.9878L15.2377 4.99997H11.875V6.24997ZM11.875 9.99997V11.727L13.8687 11.8441L14.2376 9.99997H11.875ZM5.03444 11.3247L6.24996 11.3961V9.99997H3.78383L3.94771 10.4916C4.08443 10.9021 4.60262 11.2991 5.03444 11.3247ZM2.53353 6.24997H6.24996V4.99997H2.11696L2.53353 6.24997ZM6.24996 17.5C6.24996 18.5339 5.40889 19.375 4.37496 19.375C3.34102 19.375 2.49996 18.5339 2.49996 17.5C2.49996 16.466 3.34102 15.625 4.37496 15.625C5.40889 15.625 6.24996 16.466 6.24996 17.5ZM4.37496 16.875C4.03042 16.875 3.74996 17.1554 3.74996 17.5C3.74996 17.8445 4.03042 18.125 4.37496 18.125C4.7195 18.125 4.99996 17.8445 4.99996 17.5C4.99996 17.1554 4.7195 16.875 4.37496 16.875ZM16.25 17.5C16.25 18.5339 15.4089 19.375 14.375 19.375C13.341 19.375 12.5 18.5339 12.5 17.5C12.5 16.466 13.341 15.625 14.375 15.625C15.4089 15.625 16.25 16.466 16.25 17.5ZM14.375 16.875C14.0304 16.875 13.75 17.1554 13.75 17.5C13.75 17.8445 14.0304 18.125 14.375 18.125C14.7195 18.125 15 17.8445 15 17.5C15 17.1554 14.7195 16.875 14.375 16.875Z" fill="#1F1F21"/>
</g>
<defs>
<clipPath id="clip0_1171_455">
<rect width="20" height="20" fill="white" transform="matrix(-1 0 0 1 20 0)"/>
</clipPath>
</defs>
</svg>
