<svg width="30" height="30" viewBox="0 0 30 30" fill="none" xmlns="http://www.w3.org/2000/svg">
<g clip-path="url(#clip0_1110_553)">
<path d="M14.9999 0C6.72896 0 0 6.72896 0 14.9999C0 23.2709 6.72896 29.9999 14.9999 29.9999C23.2709 29.9999 29.9999 23.271 29.9999 14.9999C29.9999 6.72891 23.2709 0 14.9999 0ZM14.9999 28.1249C7.76285 28.1249 1.875 22.237 1.875 14.9999C1.875 7.76285 7.76285 1.875 14.9999 1.875C22.237 1.875 28.1249 7.76279 28.1249 14.9999C28.1249 22.237 22.237 28.1249 14.9999 28.1249ZM23.3203 14.9999C23.3203 15.5177 22.9005 15.9374 22.3828 15.9374H15.9374V22.3828C15.9374 22.9005 15.5177 23.3203 14.9999 23.3203C14.4822 23.3203 14.0624 22.9005 14.0624 22.3828V15.9374H7.61713C7.09939 15.9374 6.67963 15.5177 6.67963 14.9999C6.67963 14.4821 7.09939 14.0624 7.61713 14.0624H14.0624V7.61713C14.0624 7.09934 14.4822 6.67963 14.9999 6.67963C15.5177 6.67963 15.9374 7.09934 15.9374 7.61713V14.0624H22.3828C22.9005 14.0624 23.3203 14.4822 23.3203 14.9999Z" fill="#1F1F21"/>
</g>
<defs>
<clipPath id="clip0_1110_553">
<rect width="30" height="30" fill="white"/>
</clipPath>
</defs>
</svg>
